<?xml version="1.0" standalone="yes"?>
<!-- Generated by Visual Integrity Suite v6.1a -->
<!DOCTYPE svg PUBLIC "-//W3C//DTD SVG 20001102//EN"
	"http://www.w3.org/TR/2000/CR-SVG-20001102/DTD/svg-20001102.dtd" [
<!ENTITY sto0 "fill:#FFE5DD;  fill-rule:nonzero; stroke:none; stroke-width:0.28; stroke-linecap:butt; stroke-linejoin:bevel">
<!ENTITY sto1 "fill:#FFFFFF;  fill-rule:nonzero; stroke:none; stroke-width:0.28; stroke-linecap:butt; stroke-linejoin:bevel">
<!ENTITY sto2 "fill:none;  fill-rule:nonzero; stroke:#000000; stroke-width:0.18; stroke-linecap:butt; stroke-linejoin:miter">
<!ENTITY sto3 "fill:#CC4C00;  fill-rule:nonzero; stroke:none; stroke-width:0.18; stroke-linecap:butt; stroke-linejoin:bevel">
<!ENTITY sto4 "fill:#D8D8D8;  fill-rule:nonzero; stroke:none; stroke-width:0.18; stroke-linecap:butt; stroke-linejoin:bevel">
<!ENTITY sto5 "fill:#99FFFF;  fill-rule:nonzero; stroke:none; stroke-width:0.18; stroke-linecap:butt; stroke-linejoin:bevel">
<!ENTITY sto6 "fill:#DDAA54;  fill-rule:nonzero; stroke:none; stroke-width:0.18; stroke-linecap:butt; stroke-linejoin:bevel">
<!ENTITY sto7 "fill:#FFFFFF;  fill-rule:nonzero; stroke:none; stroke-width:0.18; stroke-linecap:butt; stroke-linejoin:bevel">
<!ENTITY sto8 "fill:#FFE5DD;  fill-rule:nonzero; stroke:none; stroke-width:0.18; stroke-linecap:butt; stroke-linejoin:bevel">
<!ENTITY stt0 "font-family:'Arial'; font-size:7.00px; fill:#000000">
]>
<svg xmlns:xlink="http://www.w3.org/1999/xlink" xmlns="http://www.w3.org/2000/svg" xml:space="preserve" viewBox="0 0 142.90 194.99">
<path style="&sto0;"
d="M 0.09 0.27 C 1.35 0.63 8.73 5.13 10.17 5.67 C 11.79 6.21 13.59 6.75 14.85 7.47
	 L 14.67 7.29 L 15.39 7.83 C 17.01 8.73 18.63 9.63 20.61 10.17
	 L 20.25 10.17 C 21.15 10.35 21.87 10.71 22.59 10.89 C 23.13 11.07 23.67 11.25 24.03 11.43
	 C 25.65 12.15 27.27 12.69 28.71 13.23 C 30.51 13.77 32.13 14.49 33.93 15.21 L 33.93 15.21
	 L 34.11 15.39 C 36.27 16.29 38.79 17.55 41.13 18.99 L 41.31 19.17
	 L 41.49 19.17 C 41.67 19.35 42.03 19.53 42.39 19.71 C 43.29 20.25 44.55 20.79 45.45 21.15
	 L 45.63 21.15 L 45.63 21.15 C 47.25 21.69 48.51 22.41 49.95 23.31
	 C 51.21 24.03 52.83 24.93 54.81 25.83 L 54.81 25.83 L 54.81 25.83
	 C 57.87 27.09 60.93 27.45 63.99 27.81 C 65.25 27.99 66.51 28.17 67.77 28.53 L 67.95 28.53
	 L 68.13 28.53 C 69.57 28.71 71.37 28.71 72.81 28.53 L 72.99 28.53
	 L 73.17 28.53 C 76.05 27.81 78.39 26.73 80.73 25.83 C 81.99 25.29 82.89 24.93 83.97 24.39
	 L 83.79 24.57 C 85.77 24.03 88.11 22.95 90.09 21.69 L 89.91 21.69
	 C 91.35 20.97 92.97 20.25 94.41 19.53 C 96.21 18.81 98.01 18.09 99.81 17.01 L 99.63 17.19
	 C 100.17 16.83 100.89 16.47 101.79 16.29 C 102.69 15.93 103.77 15.57 104.85 15.21 C 106.29 14.49 107.37 13.77 108.45 13.05
	 C 109.17 12.69 109.89 12.15 110.61 11.79 L 110.43 11.97 C 111.15 11.61 111.69 11.25 112.41 11.07
	 C 113.85 10.35 114.93 9.63 116.37 9.45 L 117.81 9.09 C 119.25 8.73 120.69 8.37 122.13 7.83
	 L 121.77 8.01 C 122.85 7.65 123.75 7.29 124.47 6.93 C 124.83 6.75 125.19 6.57 125.37 6.39
	 L 125.37 6.39 C 125.37 6.39 125.37 6.39 125.37 6.39 C 127.17 5.85 137.43 0.63 138.87 0.27 Z"/>
<path style="&sto1;"
d="M 8.91 0.27 C 11.61 1.35 15.03 2.25 17.73 3.51 C 19.35 4.41 20.97 5.31 22.95 6.03
	 C 24.03 6.39 25.65 6.75 26.73 7.29 C 30.15 8.73 33.21 9.63 36.63 11.25 C 39.33 12.33 42.03 13.77 44.37 15.21
	 C 45.27 15.75 46.89 16.65 47.79 17.01 C 51.75 18.27 53.55 20.07 57.33 21.69 C 61.11 23.13 65.43 23.31 69.57 24.03
	 C 70.65 24.21 71.91 24.21 72.99 24.03 C 76.95 23.31 79.83 21.51 83.43 20.25 C 84.87 19.89 87.03 18.81 88.65 17.91
	 C 91.89 15.93 95.13 15.03 98.37 13.23 C 99.99 12.33 102.15 11.79 103.77 11.07 C 105.93 10.17 107.55 8.91 109.35 7.83
	 C 111.69 6.75 113.49 5.67 116.01 5.13 C 117.99 4.59 119.79 4.23 121.41 3.69 C 122.67 3.33 123.93 2.43 125.01 2.25
	 C 126.45 1.71 130.05 0.63 131.85 0.27 Z"/>
<path style="&sto2;"
d="M 8.91 0.27 C 11.61 1.35 15.03 2.25 17.73 3.51 C 19.35 4.41 20.97 5.31 22.95 6.03
	 C 24.03 6.39 25.65 6.75 26.73 7.29 C 30.15 8.73 33.21 9.63 36.63 11.25 C 39.33 12.33 42.03 13.77 44.37 15.21
	 C 45.27 15.75 46.89 16.65 47.79 17.01 C 51.75 18.27 53.55 20.07 57.33 21.69 C 61.11 23.13 65.43 23.31 69.57 24.03
	 C 70.65 24.21 71.91 24.21 72.99 24.03 C 76.95 23.31 79.83 21.51 83.43 20.25 C 84.87 19.89 87.03 18.81 88.65 17.91
	 C 91.89 15.93 95.13 15.03 98.37 13.23 C 99.99 12.33 102.15 11.79 103.77 11.07 C 105.93 10.17 107.55 8.91 109.35 7.83
	 C 111.69 6.75 113.49 5.67 116.01 5.13 C 117.99 4.59 119.79 4.23 121.41 3.69 C 122.67 3.33 123.93 2.43 125.01 2.25
	 C 126.45 1.71 130.05 0.63 131.85 0.27"/>
<polygon style="&sto3;"
	points="123.57,2.07 123.57,0.27 15.57,0.27 15.57,2.07 
	123.57,2.07 "/>
<polyline style="&sto2;"
	points="123.57,2.07 123.57,0.27 15.57,0.27 15.57,2.07 
	123.57,2.07 "/>
<polygon style="&sto4;"
	points="15.57,2.61 15.57,0.09 8.91,0.09 15.57,2.61 "/>
<polyline style="&sto2;"
	points="15.57,2.61 15.57,0.09 8.91,0.09 15.57,2.61 "/>
<polygon style="&sto3;"
	points="31.59,9.27 31.59,2.07 30.33,2.07 30.15,8.73 
	31.59,9.27 "/>
<polyline style="&sto2;"
	points="31.59,9.27 31.59,2.07 30.33,2.07 30.15,8.73 
	31.59,9.27 "/>
<path style="&sto5;"
d="M 82.89 13.41 L 83.07 20.43 L 81.09 21.15
	 L 81.27 13.41 L 57.15 13.41 L 57.33 21.69
	 L 55.17 20.61 L 55.35 13.41 L 41.31 13.41
	 C 42.21 13.95 43.47 14.85 44.37 15.21 C 45.27 15.75 46.89 16.65 47.79 17.01 C 51.75 18.27 53.55 20.25 57.33 21.69
	 C 61.11 23.13 65.43 23.31 69.57 24.21 C 70.65 24.39 71.91 24.39 72.99 24.21 C 76.95 23.31 79.83 21.69 83.43 20.43
	 C 85.05 19.89 87.03 18.99 88.65 17.91 C 90.99 16.65 93.15 15.75 95.49 14.67 C 96.39 14.31 96.93 14.13 98.01 13.41
	 L 82.89 13.41 Z"/>
<path style="&sto2;"
d="M 82.89 13.41 L 83.07 20.43 L 81.09 21.15
	 L 81.27 13.41 L 57.15 13.41 L 57.33 21.69
	 L 55.17 20.61 L 55.35 13.41 L 41.31 13.41
	 C 42.21 13.95 43.47 14.85 44.37 15.21 C 45.27 15.75 46.89 16.65 47.79 17.01 C 51.75 18.27 53.55 20.25 57.33 21.69
	 C 61.11 23.13 65.43 23.31 69.57 24.21 C 70.65 24.39 71.91 24.39 72.99 24.21 C 76.95 23.31 79.83 21.69 83.43 20.43
	 C 85.05 19.89 87.03 18.99 88.65 17.91 C 90.99 16.65 93.15 15.75 95.49 14.67 C 96.39 14.31 96.93 14.13 98.01 13.41
	 L 82.89 13.41"/>
<polygon style="&sto3;"
	points="56.79,2.07 55.53,2.07 55.35,13.41 57.15,13.41 
	56.79,2.07 "/>
<polyline style="&sto2;"
	points="56.79,2.07 55.53,2.07 55.35,13.41 57.15,13.41 
	56.79,2.07 "/>
<polygon style="&sto6;"
	points="57.33,21.69 57.15,13.41 55.35,13.41 55.17,20.61 
	57.33,21.69 "/>
<polyline style="&sto2;"
	points="57.33,21.69 57.15,13.41 55.35,13.41 55.17,20.61 
	57.33,21.69 "/>
<polygon style="&sto3;"
	points="82.71,2.07 81.45,2.07 81.27,13.41 82.89,13.41 
	82.71,2.07 "/>
<polyline style="&sto2;"
	points="82.71,2.07 81.45,2.07 81.27,13.41 82.89,13.41 
	82.71,2.07 "/>
<polygon style="&sto6;"
	points="83.07,20.43 82.89,13.41 81.27,13.41 81.09,21.15 
	83.07,20.43 "/>
<polyline style="&sto2;"
	points="83.07,20.43 82.89,13.41 81.27,13.41 81.09,21.15 
	83.07,20.43 "/>
<polygon style="&sto3;"
	points="107.91,8.73 107.91,2.07 106.65,2.07 106.47,9.63 
	107.91,8.73 "/>
<polyline style="&sto2;"
	points="107.91,8.73 107.91,2.07 106.65,2.07 106.47,9.63 
	107.91,8.73 "/>
<polygon style="&sto4;"
	points="123.57,2.79 123.57,0.27 132.03,0.27 123.57,2.79 "/>
<polyline style="&sto2;"
	points="123.57,2.79 123.57,0.27 132.03,0.27 123.57,2.79 "/>
<polygon style="&sto4;"
	points="8.91,0.09 0.09,0.09 "/>
<polyline style="&sto2;"
	points="8.91,0.09 0.09,0.09 "/>
<polygon style="&sto7;"
	points="132.03,0.27 138.87,0.27 "/>
<polyline style="&sto2;"
	points="132.03,0.27 138.87,0.27 "/>
<path style="&sto8;"
d="M 0.09 166.23 C 1.35 166.77 8.73 171.27 10.17 171.63 C 11.79 172.35 13.59 172.89 14.85 173.43
	 L 14.67 173.43 L 15.39 173.79 C 17.01 174.69 18.63 175.59 20.61 176.31
	 L 20.25 176.13 C 21.15 176.49 21.87 176.67 22.59 177.03 C 23.13 177.03 23.67 177.21 24.03 177.39
	 C 25.65 178.11 27.27 178.65 28.71 179.19 C 30.51 179.91 32.13 180.45 33.93 181.35 L 33.93 181.35
	 L 34.11 181.35 C 36.27 182.43 38.79 183.69 41.13 185.13 L 41.31 185.13
	 L 41.49 185.31 C 41.67 185.31 42.03 185.49 42.39 185.67 C 43.29 186.21 44.55 186.93 45.45 187.29
	 L 45.63 187.29 L 45.63 187.29 C 47.25 187.83 48.51 188.55 49.95 189.45
	 C 51.21 190.17 52.83 191.07 54.81 191.79 L 54.81 191.97 L 54.81 191.97
	 C 57.87 193.05 60.93 193.41 63.99 193.95 C 65.25 194.13 66.51 194.31 67.77 194.49 L 67.95 194.49
	 L 68.13 194.49 C 69.57 194.85 71.37 194.85 72.81 194.49 L 72.99 194.49
	 L 73.17 194.49 C 76.05 193.95 78.39 192.87 80.73 191.79 C 81.99 191.43 82.89 190.89 83.97 190.53
	 L 83.79 190.53 C 85.77 189.99 88.11 188.91 90.09 187.83 L 89.91 187.83
	 C 91.35 186.93 92.97 186.39 94.41 185.67 C 96.21 184.95 98.01 184.05 99.81 182.97 L 99.63 183.15
	 C 100.17 182.97 100.89 182.61 101.79 182.25 C 102.69 182.07 103.77 181.71 104.85 181.17 C 106.29 180.45 107.37 179.73 108.45 179.19
	 C 109.17 178.65 109.89 178.29 110.61 177.93 L 110.43 177.93 C 111.15 177.75 111.69 177.39 112.41 177.03
	 C 113.85 176.31 114.93 175.77 116.37 175.41 L 117.81 175.05 C 119.25 174.69 120.69 174.33 122.13 173.79
	 L 121.77 173.97 C 122.85 173.79 123.75 173.25 124.47 172.89 C 124.83 172.71 125.19 172.53 125.37 172.53
	 L 125.37 172.53 C 125.37 172.53 125.37 172.53 125.37 172.53 C 127.17 171.99 137.43 166.77 138.87 166.23 Z"/>
<path style="&sto7;"
d="M 8.91 166.23 C 11.61 167.31 15.03 168.21 17.73 169.47 C 19.35 170.55 20.97 171.45 22.95 171.99
	 C 24.03 172.53 25.65 172.89 26.73 173.25 C 30.15 174.87 33.21 175.77 36.63 177.39 C 39.33 178.47 42.03 179.91 44.37 181.35
	 C 45.27 181.71 46.89 182.61 47.79 182.97 C 51.75 184.23 53.55 186.21 57.33 187.83 C 61.11 189.27 65.43 189.45 69.57 190.17
	 C 70.65 190.35 71.91 190.35 72.99 190.17 C 76.95 189.45 79.83 187.65 83.43 186.39 C 84.87 185.85 87.03 184.95 88.65 184.05
	 C 91.89 182.07 95.13 181.17 98.37 179.19 C 99.99 178.47 102.15 177.93 103.77 177.21 C 105.93 176.13 107.55 174.87 109.35 173.97
	 C 111.69 172.89 113.49 171.81 116.01 171.09 C 117.99 170.55 119.79 170.37 121.41 169.65 C 122.67 169.29 123.93 168.57 125.01 168.21
	 C 126.45 167.85 130.05 166.77 131.85 166.23 Z"/>
<path style="&sto2;"
d="M 8.91 166.23 C 11.61 167.31 15.03 168.21 17.73 169.47 C 19.35 170.55 20.97 171.45 22.95 171.99
	 C 24.03 172.53 25.65 172.89 26.73 173.25 C 30.15 174.87 33.21 175.77 36.63 177.39 C 39.33 178.47 42.03 179.91 44.37 181.35
	 C 45.27 181.71 46.89 182.61 47.79 182.97 C 51.75 184.23 53.55 186.21 57.33 187.83 C 61.11 189.27 65.43 189.45 69.57 190.17
	 C 70.65 190.35 71.91 190.35 72.99 190.17 C 76.95 189.45 79.83 187.65 83.43 186.39 C 84.87 185.85 87.03 184.95 88.65 184.05
	 C 91.89 182.07 95.13 181.17 98.37 179.19 C 99.99 178.47 102.15 177.93 103.77 177.21 C 105.93 176.13 107.55 174.87 109.35 173.97
	 C 111.69 172.89 113.49 171.81 116.01 171.09 C 117.99 170.55 119.79 170.37 121.41 169.65 C 122.67 169.29 123.93 168.57 125.01 168.21
	 C 126.45 167.85 130.05 166.77 131.85 166.23"/>
<polygon style="&sto7;"
	points="36.63,152.73 33.93,166.23 "/>
<polyline style="&sto2;"
	points="36.63,152.73 33.93,166.23 "/>
<polygon style="&sto7;"
	points="36.63,152.73 28.71,166.23 "/>
<polyline style="&sto2;"
	points="36.63,152.73 28.71,166.23 "/>
<polygon style="&sto7;"
	points="36.63,152.73 22.95,166.23 "/>
<polyline style="&sto2;"
	points="36.63,152.73 22.95,166.23 "/>
<polygon style="&sto7;"
	points="36.63,152.73 15.57,166.23 "/>
<polyline style="&sto2;"
	points="36.63,152.73 15.57,166.23 "/>
<polygon style="&sto7;"
	points="38.07,152.73 40.77,166.23 "/>
<polyline style="&sto2;"
	points="38.07,152.73 40.77,166.23 "/>
<polygon style="&sto7;"
	points="38.07,152.73 45.81,166.23 "/>
<polyline style="&sto2;"
	points="38.07,152.73 45.81,166.23 "/>
<polygon style="&sto7;"
	points="38.07,152.73 51.21,166.23 "/>
<polyline style="&sto2;"
	points="38.07,152.73 51.21,166.23 "/>
<polygon style="&sto7;"
	points="38.07,152.73 58.05,166.23 "/>
<polyline style="&sto2;"
	points="38.07,152.73 58.05,166.23 "/>
<polygon style="&sto7;"
	points="38.07,152.73 65.07,166.23 "/>
<polyline style="&sto2;"
	points="38.07,152.73 65.07,166.23 "/>
<polygon style="&sto7;"
	points="102.33,152.73 105.03,166.23 "/>
<polyline style="&sto2;"
	points="102.33,152.73 105.03,166.23 "/>
<polygon style="&sto7;"
	points="102.33,152.73 110.25,166.23 "/>
<polyline style="&sto2;"
	points="102.33,152.73 110.25,166.23 "/>
<polygon style="&sto7;"
	points="102.33,152.73 116.19,166.23 "/>
<polyline style="&sto2;"
	points="102.33,152.73 116.19,166.23 "/>
<polygon style="&sto7;"
	points="102.33,152.73 123.39,166.23 "/>
<polyline style="&sto2;"
	points="102.33,152.73 123.39,166.23 "/>
<polygon style="&sto7;"
	points="100.89,152.73 98.37,166.23 "/>
<polyline style="&sto2;"
	points="100.89,152.73 98.37,166.23 "/>
<polygon style="&sto7;"
	points="100.89,152.73 93.15,166.23 "/>
<polyline style="&sto2;"
	points="100.89,152.73 93.15,166.23 "/>
<polygon style="&sto7;"
	points="100.89,152.73 87.75,166.23 "/>
<polyline style="&sto2;"
	points="100.89,152.73 87.75,166.23 "/>
<polygon style="&sto7;"
	points="100.89,152.73 80.91,166.23 "/>
<polyline style="&sto2;"
	points="100.89,152.73 80.91,166.23 "/>
<polygon style="&sto7;"
	points="100.89,152.73 73.89,166.23 "/>
<polyline style="&sto2;"
	points="100.89,152.73 73.89,166.23 "/>
<polygon style="&sto3;"
	points="100.35,178.47 100.89,152.73 102.33,152.73 102.87,177.57 
	100.35,178.47 "/>
<polyline style="&sto2;"
	points="100.35,178.47 100.89,152.73 102.33,152.73 102.87,177.57 
	100.35,178.47 "/>
<polygon style="&sto3;"
	points="38.61,178.11 38.25,152.73 36.63,152.73 36.27,177.03 
	38.61,178.11 "/>
<polyline style="&sto2;"
	points="38.61,178.11 38.25,152.73 36.63,152.73 36.27,177.03 
	38.61,178.11 "/>
<polygon style="&sto4;"
	points="8.91,166.23 0.63,166.23 "/>
<polyline style="&sto2;"
	points="8.91,166.23 0.63,166.23 "/>
<polygon style="&sto7;"
	points="132.03,166.23 138.87,166.23 "/>
<polyline style="&sto2;"
	points="132.03,166.23 138.87,166.23 "/>
<path style="&sto5;"
d="M 41.13 179.55 C 42.03 180.09 43.47 180.81 44.19 181.35 C 45.09 181.71 46.71 182.79 47.79 183.15
	 C 51.75 184.41 53.37 186.21 57.15 187.83 C 61.11 189.27 65.25 189.45 69.39 190.17 C 70.47 190.35 71.91 190.35 72.99 190.17
	 C 76.77 189.45 79.83 187.65 83.25 186.39 C 84.87 185.85 86.85 184.95 88.47 184.05 C 90.81 182.79 92.97 181.89 95.31 180.81
	 C 96.21 180.27 96.75 180.09 97.83 179.55 L 41.13 179.55 Z"/>
<path style="&sto2;"
d="M 41.13 179.55 C 42.03 180.09 43.47 180.81 44.19 181.35 C 45.09 181.71 46.71 182.79 47.79 183.15
	 C 51.75 184.41 53.37 186.21 57.15 187.83 C 61.11 189.27 65.25 189.45 69.39 190.17 C 70.47 190.35 71.91 190.35 72.99 190.17
	 C 76.77 189.45 79.83 187.65 83.25 186.39 C 84.87 185.85 86.85 184.95 88.47 184.05 C 90.81 182.79 92.97 181.89 95.31 180.81
	 C 96.21 180.27 96.75 180.09 97.83 179.55 L 41.13 179.55"/>
<polygon style="&sto4;"
	points="15.57,168.57 15.57,166.23 8.91,166.23 15.57,168.57 "/>
<polyline style="&sto2;"
	points="15.57,168.57 15.57,166.23 8.91,166.23 15.57,168.57 "/>
<polygon style="&sto4;"
	points="123.57,168.75 123.57,166.23 132.03,166.23 123.57,168.75 "/>
<polyline style="&sto2;"
	points="123.57,168.75 123.57,166.23 132.03,166.23 123.57,168.75 "/>
<polygon style="&sto3;"
	points="123.57,167.13 123.57,166.23 15.57,166.23 15.57,167.13 
	123.57,167.13 "/>
<polyline style="&sto2;"
	points="123.57,167.13 123.57,166.23 15.57,166.23 15.57,167.13 
	123.57,167.13 "/>
<path style="&sto8;"
d="M 0.09 119.79 C 1.35 120.33 8.73 124.83 10.17 125.19 C 11.79 125.73 13.59 126.45 14.85 126.99
	 L 14.67 126.99 L 15.39 127.35 C 17.01 128.25 18.63 129.15 20.61 129.87
	 L 20.25 129.69 C 21.15 130.05 21.87 130.23 22.59 130.41 C 23.13 130.59 23.67 130.77 24.03 130.95
	 C 25.65 131.67 27.27 132.21 28.71 132.75 C 30.51 133.47 32.13 134.01 33.93 134.91 L 33.93 134.91
	 L 34.11 134.91 C 36.27 135.81 38.79 137.25 41.13 138.51 L 41.31 138.69
	 L 41.49 138.69 C 41.67 138.87 42.03 139.05 42.39 139.23 C 43.29 139.77 44.55 140.49 45.45 140.67
	 L 45.63 140.67 L 45.63 140.85 C 47.25 141.39 48.51 141.93 49.95 142.83
	 C 51.21 143.73 52.83 144.63 54.81 145.35 L 54.81 145.35 L 54.81 145.53
	 C 57.87 146.61 60.93 146.97 63.99 147.51 C 65.25 147.69 66.51 147.87 67.77 148.05 L 67.95 148.05
	 L 68.13 148.05 C 69.57 148.23 71.37 148.23 72.81 148.05 L 72.99 148.05
	 L 73.17 148.05 C 76.05 147.33 78.39 146.43 80.73 145.35 C 81.99 144.81 82.89 144.45 83.97 144.09
	 L 83.79 144.09 C 85.77 143.55 88.11 142.47 90.09 141.21 L 89.91 141.39
	 C 91.35 140.49 92.97 139.77 94.41 139.23 C 96.21 138.33 98.01 137.61 99.81 136.53 L 99.63 136.71
	 C 100.17 136.35 100.89 136.17 101.79 135.81 C 102.69 135.45 103.77 135.09 104.85 134.73 C 106.29 134.01 107.37 133.29 108.45 132.75
	 C 109.17 132.21 109.89 131.85 110.61 131.49 L 110.43 131.49 C 111.15 131.13 111.69 130.95 112.41 130.59
	 C 113.85 129.87 114.93 129.33 116.37 128.97 L 117.81 128.61 C 119.25 128.25 120.69 127.89 122.13 127.35
	 L 121.77 127.53 C 122.85 127.17 123.75 126.81 124.47 126.45 C 124.83 126.27 125.19 126.09 125.37 126.09
	 L 125.37 126.09 C 125.37 126.09 125.37 126.09 125.37 126.09 C 127.17 125.55 137.43 120.15 138.87 119.79 Z"/>
<path style="&sto7;"
d="M 8.91 119.79 C 11.61 120.87 15.03 121.77 17.73 123.03 C 19.35 123.93 20.97 125.01 22.95 125.55
	 C 24.03 126.09 25.65 126.45 26.73 126.81 C 30.15 128.25 33.21 129.15 36.63 130.77 C 39.33 131.85 42.03 133.29 44.37 134.73
	 C 45.27 135.27 46.89 136.17 47.79 136.53 C 51.75 137.79 53.55 139.77 57.33 141.21 C 61.11 142.65 65.43 142.83 69.57 143.73
	 C 70.65 143.91 71.91 143.91 72.99 143.73 C 76.95 142.83 79.83 141.21 83.43 139.95 C 84.87 139.41 87.03 138.51 88.65 137.43
	 C 91.89 135.63 95.13 134.55 98.37 132.75 C 99.99 131.85 102.15 131.49 103.77 130.59 C 105.93 129.69 107.55 128.43 109.35 127.53
	 C 111.69 126.45 113.49 125.19 116.01 124.65 C 117.99 124.11 119.79 123.75 121.41 123.21 C 122.67 122.85 123.93 122.13 125.01 121.77
	 C 126.45 121.23 130.05 120.33 131.85 119.79 Z"/>
<path style="&sto2;"
d="M 8.91 119.79 C 11.61 120.87 15.03 121.77 17.73 123.03 C 19.35 123.93 20.97 125.01 22.95 125.55
	 C 24.03 126.09 25.65 126.45 26.73 126.81 C 30.15 128.25 33.21 129.15 36.63 130.77 C 39.33 131.85 42.03 133.29 44.37 134.73
	 C 45.27 135.27 46.89 136.17 47.79 136.53 C 51.75 137.79 53.55 139.77 57.33 141.21 C 61.11 142.65 65.43 142.83 69.57 143.73
	 C 70.65 143.91 71.91 143.91 72.99 143.73 C 76.95 142.83 79.83 141.21 83.43 139.95 C 84.87 139.41 87.03 138.51 88.65 137.43
	 C 91.89 135.63 95.13 134.55 98.37 132.75 C 99.99 131.85 102.15 131.49 103.77 130.59 C 105.93 129.69 107.55 128.43 109.35 127.53
	 C 111.69 126.45 113.49 125.19 116.01 124.65 C 117.99 124.11 119.79 123.75 121.41 123.21 C 122.67 122.85 123.93 122.13 125.01 121.77
	 C 126.45 121.23 130.05 120.33 131.85 119.79"/>
<polygon style="&sto4;"
	points="15.57,122.13 15.57,119.79 8.91,119.79 15.57,122.13 "/>
<polyline style="&sto2;"
	points="15.57,122.13 15.57,119.79 8.91,119.79 15.57,122.13 "/>
<polygon style="&sto4;"
	points="123.57,122.31 123.57,119.79 132.03,119.79 123.57,122.31 "/>
<polyline style="&sto2;"
	points="123.57,122.31 123.57,119.79 132.03,119.79 123.57,122.31 "/>
<polygon style="&sto4;"
	points="8.91,119.79 0.09,119.79 "/>
<polyline style="&sto2;"
	points="8.91,119.79 0.09,119.79 "/>
<polygon style="&sto7;"
	points="132.03,119.79 138.87,119.79 "/>
<polyline style="&sto2;"
	points="132.03,119.79 138.87,119.79 "/>
<path style="&sto5;"
d="M 41.13 133.11 C 42.03 133.47 43.47 134.37 44.19 134.91 C 45.09 135.27 46.71 136.35 47.79 136.53
	 C 51.75 137.79 53.37 139.77 57.15 141.39 C 61.11 142.83 65.25 143.01 69.39 143.73 C 70.47 143.91 71.91 143.91 72.99 143.73
	 C 76.77 143.01 79.83 141.21 83.25 139.95 C 84.87 139.41 86.85 138.51 88.47 137.61 C 90.81 136.17 92.97 135.45 95.31 134.37
	 C 96.21 133.83 96.75 133.65 97.83 133.11 L 41.13 133.11 Z"/>
<path style="&sto2;"
d="M 41.13 133.11 C 42.03 133.47 43.47 134.37 44.19 134.91 C 45.09 135.27 46.71 136.35 47.79 136.53
	 C 51.75 137.79 53.37 139.77 57.15 141.39 C 61.11 142.83 65.25 143.01 69.39 143.73 C 70.47 143.91 71.91 143.91 72.99 143.73
	 C 76.77 143.01 79.83 141.21 83.25 139.95 C 84.87 139.41 86.85 138.51 88.47 137.61 C 90.81 136.17 92.97 135.45 95.31 134.37
	 C 96.21 133.83 96.75 133.65 97.83 133.11 L 41.13 133.11"/>
<path style="&sto2;"
d="M 128.97 119.79 C 117.81 119.79 107.37 116.19 98.91 110.07 L 98.91 110.07
	 C 90.63 115.65 80.55 118.89 69.93 118.89 C 59.13 118.89 49.05 115.65 40.77 110.07 L 40.77 110.07
	 C 32.31 116.19 22.05 119.79 10.71 119.79"/>
<polyline style="&sto2;"
	points="43.29,111.69 43.29,120.33 "/>
<polyline style="&sto2;"
	points="45.81,113.13 45.81,120.15 "/>
<polyline style="&sto2;"
	points="48.33,114.21 48.33,120.15 "/>
<polyline style="&sto2;"
	points="50.85,115.29 50.85,120.15 "/>
<polyline style="&sto2;"
	points="53.37,116.19 53.37,120.15 "/>
<polyline style="&sto2;"
	points="55.89,117.09 55.89,120.15 "/>
<polyline style="&sto2;"
	points="58.41,117.63 58.41,120.15 "/>
<polyline style="&sto2;"
	points="60.93,118.17 60.93,120.15 "/>
<polyline style="&sto2;"
	points="63.45,118.53 63.45,120.15 "/>
<polyline style="&sto2;"
	points="65.97,118.71 65.97,120.15 "/>
<polyline style="&sto2;"
	points="68.49,118.89 68.49,120.15 "/>
<polyline style="&sto2;"
	points="71.01,118.89 71.01,120.15 "/>
<polyline style="&sto2;"
	points="73.53,118.89 73.53,120.15 "/>
<polyline style="&sto2;"
	points="76.23,118.53 76.23,120.15 "/>
<polyline style="&sto2;"
	points="17.91,119.25 17.91,120.15 "/>
<polyline style="&sto2;"
	points="20.43,118.89 20.43,120.15 "/>
<polyline style="&sto2;"
	points="22.95,118.17 22.95,120.15 "/>
<polyline style="&sto2;"
	points="25.47,117.63 25.47,120.15 "/>
<polyline style="&sto2;"
	points="27.99,116.73 27.99,120.15 "/>
<polyline style="&sto2;"
	points="30.51,115.83 30.51,120.15 "/>
<polyline style="&sto2;"
	points="33.03,114.57 33.03,120.15 "/>
<polyline style="&sto2;"
	points="35.73,113.31 35.73,120.15 "/>
<polyline style="&sto2;"
	points="38.25,111.87 38.25,120.15 "/>
<polyline style="&sto2;"
	points="78.75,118.17 78.75,120.15 "/>
<polyline style="&sto2;"
	points="81.27,117.81 81.27,120.15 "/>
<polyline style="&sto2;"
	points="83.79,117.09 83.79,120.15 "/>
<polyline style="&sto2;"
	points="86.31,116.37 86.31,120.15 "/>
<polyline style="&sto2;"
	points="88.83,115.47 88.83,120.15 "/>
<polyline style="&sto2;"
	points="101.61,111.87 101.61,120.15 "/>
<polyline style="&sto2;"
	points="104.13,113.31 104.13,120.15 "/>
<polyline style="&sto2;"
	points="106.65,114.75 106.65,120.15 "/>
<polyline style="&sto2;"
	points="109.17,115.83 109.17,120.15 "/>
<polyline style="&sto2;"
	points="111.69,116.73 111.69,120.15 "/>
<polyline style="&sto2;"
	points="114.21,117.63 114.21,120.15 "/>
<polyline style="&sto2;"
	points="116.73,118.17 116.73,120.15 "/>
<polyline style="&sto2;"
	points="119.25,118.71 119.25,120.15 "/>
<polyline style="&sto2;"
	points="121.77,119.25 121.77,120.15 "/>
<polyline style="&sto2;"
	points="91.35,114.39 91.35,120.15 "/>
<polyline style="&sto2;"
	points="93.87,113.13 93.87,120.15 "/>
<polyline style="&sto2;"
	points="96.39,111.69 96.39,120.15 "/>
<polygon style="&sto3;"
	points="41.13,132.93 41.13,110.07 40.41,110.07 40.41,132.57 
	41.13,132.93 "/>
<polyline style="&sto2;"
	points="41.13,132.93 41.13,110.07 40.41,110.07 40.41,132.57 
	41.13,132.93 "/>
<polygon style="&sto3;"
	points="99.27,132.39 99.27,110.07 98.55,110.07 98.55,132.57 
	99.27,132.39 "/>
<polyline style="&sto2;"
	points="99.27,132.39 99.27,110.07 98.55,110.07 98.55,132.57 
	99.27,132.39 "/>
<polygon style="&sto3;"
	points="123.57,120.51 123.57,119.79 15.57,119.79 15.57,120.51 
	123.57,120.51 "/>
<polyline style="&sto2;"
	points="123.57,120.51 123.57,119.79 15.57,119.79 15.57,120.51 
	123.57,120.51 "/>
<path style="&sto8;"
d="M 0.09 73.53 C 1.35 74.07 8.73 78.57 10.17 78.93 C 11.79 79.65 13.59 80.19 14.85 80.73
	 L 14.67 80.73 L 15.39 81.09 C 17.01 81.99 18.63 82.89 20.61 83.61
	 L 20.25 83.43 C 21.15 83.79 21.87 83.97 22.59 84.33 C 23.13 84.33 23.67 84.51 24.03 84.69
	 C 25.65 85.41 27.27 85.95 28.71 86.49 C 30.51 87.21 32.13 87.75 33.93 88.65 L 33.93 88.65
	 L 34.11 88.65 C 36.27 89.55 38.79 90.99 41.13 92.43 L 41.31 92.43
	 L 41.49 92.61 C 41.67 92.61 42.03 92.79 42.39 92.97 C 43.29 93.51 44.55 94.23 45.45 94.59
	 L 45.63 94.59 L 45.63 94.59 C 47.25 95.13 48.51 95.85 49.95 96.75
	 C 51.21 97.47 52.83 98.37 54.81 99.09 L 54.81 99.27 L 54.81 99.27
	 C 57.87 100.35 60.93 100.71 63.99 101.25 C 65.25 101.43 66.51 101.61 67.77 101.79 L 67.95 101.79
	 L 68.13 101.79 C 69.57 102.15 71.37 102.15 72.81 101.79 L 72.99 101.79
	 L 73.17 101.79 C 76.05 101.25 78.39 100.17 80.73 99.09 C 81.99 98.73 82.89 98.19 83.97 97.83
	 L 83.79 97.83 C 85.77 97.29 88.11 96.21 90.09 95.13 L 89.91 95.13
	 C 91.35 94.23 92.97 93.69 94.41 92.97 C 96.21 92.25 98.01 91.35 99.81 90.27 L 99.63 90.45
	 C 100.17 90.27 100.89 89.91 101.79 89.55 C 102.69 89.37 103.77 89.01 104.85 88.47 C 106.29 87.75 107.37 87.03 108.45 86.49
	 C 109.17 85.95 109.89 85.59 110.61 85.23 L 110.43 85.23 C 111.15 85.05 111.69 84.69 112.41 84.33
	 C 113.85 83.61 114.93 83.07 116.37 82.71 L 117.81 82.35 C 119.25 81.99 120.69 81.63 122.13 81.09
	 L 121.77 81.27 C 122.85 81.09 123.75 80.55 124.47 80.19 C 124.83 80.01 125.19 79.83 125.37 79.83
	 L 125.37 79.83 C 125.37 79.83 125.37 79.83 125.37 79.83 C 127.17 79.29 137.43 74.07 138.87 73.53 Z"/>
<path style="&sto7;"
d="M 8.91 73.53 C 11.61 74.61 15.03 75.51 17.73 76.77 C 19.35 77.85 20.97 78.75 22.95 79.29
	 C 24.03 79.83 25.65 80.19 26.73 80.55 C 30.15 82.17 33.21 83.07 36.63 84.51 C 39.33 85.77 42.03 87.21 44.37 88.65
	 C 45.27 89.01 46.89 89.91 47.79 90.27 C 51.75 91.53 53.55 93.51 57.33 95.13 C 61.11 96.57 65.43 96.75 69.57 97.47
	 C 70.65 97.65 71.91 97.65 72.99 97.47 C 76.95 96.75 79.83 94.95 83.43 93.69 C 84.87 93.15 87.03 92.25 88.65 91.35
	 C 91.89 89.37 95.13 88.47 98.37 86.49 C 99.99 85.77 102.15 85.23 103.77 84.51 C 105.93 83.43 107.55 82.17 109.35 81.27
	 C 111.69 80.19 113.49 79.11 116.01 78.39 C 117.99 77.85 119.79 77.67 121.41 76.95 C 122.67 76.59 123.93 75.87 125.01 75.51
	 C 126.45 75.15 130.05 74.07 131.85 73.53 Z"/>
<path style="&sto2;"
d="M 8.91 73.53 C 11.61 74.61 15.03 75.51 17.73 76.77 C 19.35 77.85 20.97 78.75 22.95 79.29
	 C 24.03 79.83 25.65 80.19 26.73 80.55 C 30.15 82.17 33.21 83.07 36.63 84.51 C 39.33 85.77 42.03 87.21 44.37 88.65
	 C 45.27 89.01 46.89 89.91 47.79 90.27 C 51.75 91.53 53.55 93.51 57.33 95.13 C 61.11 96.57 65.43 96.75 69.57 97.47
	 C 70.65 97.65 71.91 97.65 72.99 97.47 C 76.95 96.75 79.83 94.95 83.43 93.69 C 84.87 93.15 87.03 92.25 88.65 91.35
	 C 91.89 89.37 95.13 88.47 98.37 86.49 C 99.99 85.77 102.15 85.23 103.77 84.51 C 105.93 83.43 107.55 82.17 109.35 81.27
	 C 111.69 80.19 113.49 79.11 116.01 78.39 C 117.99 77.85 119.79 77.67 121.41 76.95 C 122.67 76.59 123.93 75.87 125.01 75.51
	 C 126.45 75.15 130.05 74.07 131.85 73.53"/>
<polygon style="&sto4;"
	points="15.57,75.87 15.57,73.53 8.91,73.53 15.57,75.87 "/>
<polyline style="&sto2;"
	points="15.57,75.87 15.57,73.53 8.91,73.53 15.57,75.87 "/>
<polygon style="&sto4;"
	points="123.57,76.05 123.57,73.53 132.03,73.53 123.57,76.05 "/>
<polyline style="&sto2;"
	points="123.57,76.05 123.57,73.53 132.03,73.53 123.57,76.05 "/>
<polygon style="&sto4;"
	points="8.91,73.53 0.09,73.53 "/>
<polyline style="&sto2;"
	points="8.91,73.53 0.09,73.53 "/>
<polygon style="&sto7;"
	points="132.03,73.53 138.87,73.53 "/>
<polyline style="&sto2;"
	points="132.03,73.53 138.87,73.53 "/>
<path style="&sto5;"
d="M 41.13 86.85 C 42.03 87.21 43.47 88.11 44.19 88.65 C 45.09 89.01 46.71 90.09 47.79 90.45
	 C 51.75 91.71 53.37 93.51 57.15 95.13 C 61.11 96.57 65.25 96.75 69.39 97.47 C 70.47 97.65 71.91 97.65 72.99 97.47
	 C 76.77 96.75 79.83 94.95 83.25 93.69 C 84.87 93.15 86.85 92.25 88.47 91.35 C 90.81 90.09 92.97 89.19 95.31 88.11
	 C 96.21 87.57 96.75 87.39 97.83 86.85 L 41.13 86.85 Z"/>
<path style="&sto2;"
d="M 41.13 86.85 C 42.03 87.21 43.47 88.11 44.19 88.65 C 45.09 89.01 46.71 90.09 47.79 90.45
	 C 51.75 91.71 53.37 93.51 57.15 95.13 C 61.11 96.57 65.25 96.75 69.39 97.47 C 70.47 97.65 71.91 97.65 72.99 97.47
	 C 76.77 96.75 79.83 94.95 83.25 93.69 C 84.87 93.15 86.85 92.25 88.47 91.35 C 90.81 90.09 92.97 89.19 95.31 88.11
	 C 96.21 87.57 96.75 87.39 97.83 86.85 L 41.13 86.85"/>
<polygon style="&sto3;"
	points="21.15,78.57 21.15,74.43 20.61,74.43 20.61,78.39 
	21.15,78.57 "/>
<polyline style="&sto2;"
	points="21.15,78.57 21.15,74.43 20.61,74.43 20.61,78.39 
	21.15,78.57 "/>
<polygon style="&sto3;"
	points="26.91,80.73 26.91,74.43 26.37,74.43 26.37,80.55 
	26.91,80.73 "/>
<polyline style="&sto2;"
	points="26.91,80.73 26.91,74.43 26.37,74.43 26.37,80.55 
	26.91,80.73 "/>
<polygon style="&sto3;"
	points="32.67,82.89 32.67,74.43 32.13,74.43 32.13,82.71 
	32.67,82.89 "/>
<polyline style="&sto2;"
	points="32.67,82.89 32.67,74.43 32.13,74.43 32.13,82.71 
	32.67,82.89 "/>
<polygon style="&sto3;"
	points="38.43,85.05 38.43,74.43 37.89,74.43 37.89,85.05 
	38.43,85.05 "/>
<polyline style="&sto2;"
	points="38.43,85.05 38.43,74.43 37.89,74.43 37.89,85.05 
	38.43,85.05 "/>
<polygon style="&sto3;"
	points="44.19,81.99 44.19,74.43 43.65,74.43 43.65,81.99 
	44.19,81.99 "/>
<polyline style="&sto2;"
	points="44.19,81.99 44.19,74.43 43.65,74.43 43.65,81.99 
	44.19,81.99 "/>
<polygon style="&sto3;"
	points="49.95,79.65 49.95,74.43 49.41,74.43 49.41,79.65 
	49.95,79.65 "/>
<polyline style="&sto2;"
	points="49.95,79.65 49.95,74.43 49.41,74.43 49.41,79.65 
	49.95,79.65 "/>
<polygon style="&sto3;"
	points="55.71,77.85 55.71,74.43 55.17,74.43 55.17,77.85 
	55.71,77.85 "/>
<polyline style="&sto2;"
	points="55.71,77.85 55.71,74.43 55.17,74.43 55.17,77.85 
	55.71,77.85 "/>
<polygon style="&sto3;"
	points="61.47,76.77 61.47,74.43 60.93,74.43 60.93,76.77 
	61.47,76.77 "/>
<polyline style="&sto2;"
	points="61.47,76.77 61.47,74.43 60.93,74.43 60.93,76.77 
	61.47,76.77 "/>
<polygon style="&sto3;"
	points="67.23,76.23 67.23,74.43 66.69,74.43 66.69,76.23 
	67.23,76.23 "/>
<polyline style="&sto2;"
	points="67.23,76.23 67.23,74.43 66.69,74.43 66.69,76.23 
	67.23,76.23 "/>
<polygon style="&sto3;"
	points="72.99,76.05 72.99,74.43 72.45,74.43 72.45,76.05 
	72.99,76.05 "/>
<polyline style="&sto2;"
	points="72.99,76.05 72.99,74.43 72.45,74.43 72.45,76.05 
	72.99,76.05 "/>
<polygon style="&sto3;"
	points="78.75,76.59 78.75,74.43 78.21,74.43 78.21,76.59 
	78.75,76.59 "/>
<polyline style="&sto2;"
	points="78.75,76.59 78.75,74.43 78.21,74.43 78.21,76.59 
	78.75,76.59 "/>
<polygon style="&sto3;"
	points="84.51,77.85 84.51,74.43 83.97,74.43 83.97,77.85 
	84.51,77.85 "/>
<polyline style="&sto2;"
	points="84.51,77.85 84.51,74.43 83.97,74.43 83.97,77.85 
	84.51,77.85 "/>
<polygon style="&sto3;"
	points="90.27,79.65 90.27,74.43 89.73,74.43 89.73,79.65 
	90.27,79.65 "/>
<polyline style="&sto2;"
	points="90.27,79.65 90.27,74.43 89.73,74.43 89.73,79.65 
	90.27,79.65 "/>
<polygon style="&sto3;"
	points="95.85,81.99 95.85,74.43 95.49,74.43 95.49,81.99 
	95.85,81.99 "/>
<polyline style="&sto2;"
	points="95.85,81.99 95.85,74.43 95.49,74.43 95.49,81.99 
	95.85,81.99 "/>
<polygon style="&sto3;"
	points="101.61,85.23 101.61,74.43 101.07,74.43 101.07,85.23 
	101.61,85.23 "/>
<polyline style="&sto2;"
	points="101.61,85.23 101.61,74.43 101.07,74.43 101.07,85.23 
	101.61,85.23 "/>
<polygon style="&sto3;"
	points="107.37,82.35 107.37,74.43 106.83,74.43 106.83,82.71 
	107.37,82.35 "/>
<polyline style="&sto2;"
	points="107.37,82.35 107.37,74.43 106.83,74.43 106.83,82.71 
	107.37,82.35 "/>
<polygon style="&sto3;"
	points="113.13,79.47 113.13,74.43 112.59,74.43 112.59,79.65 
	113.13,79.47 "/>
<polyline style="&sto2;"
	points="113.13,79.47 113.13,74.43 112.59,74.43 112.59,79.65 
	113.13,79.47 "/>
<polygon style="&sto3;"
	points="118.89,77.67 118.89,74.43 118.35,74.43 118.35,77.85 
	118.89,77.67 "/>
<polyline style="&sto2;"
	points="118.89,77.67 118.89,74.43 118.35,74.43 118.35,77.85 
	118.89,77.67 "/>
<path style="&sto3;"
d="M 101.79 85.23 C 92.61 79.29 81.63 75.69 69.75 75.69 C 57.87 75.69 46.89 79.11 37.71 85.05
	 L 38.43 85.41 C 47.43 79.65 58.23 76.41 69.75 76.41 C 81.27 76.41 92.07 79.65 101.25 85.41
	 L 101.79 85.23 Z"/>
<path style="&sto2;"
d="M 101.79 85.23 C 92.61 79.29 81.63 75.69 69.75 75.69 C 57.87 75.69 46.89 79.11 37.71 85.05
	 L 38.43 85.41 C 47.43 79.65 58.23 76.41 69.75 76.41 C 81.27 76.41 92.07 79.65 101.25 85.41
	 L 101.79 85.23"/>
<polygon style="&sto3;"
	points="123.57,74.43 123.57,73.53 15.57,73.53 15.57,74.43 
	123.57,74.43 "/>
<polyline style="&sto2;"
	points="123.57,74.43 123.57,73.53 15.57,73.53 15.57,74.43 
	123.57,74.43 "/>
<path style="&sto8;"
d="M 0.09 35.37 C 1.35 35.91 8.91 40.41 10.17 40.77 C 11.79 41.49 13.59 42.03 14.85 42.57
	 L 14.67 42.57 L 15.39 42.93 C 17.01 43.83 18.63 44.73 20.61 45.45
	 L 20.25 45.27 C 21.15 45.63 21.87 45.81 22.77 46.17 C 23.13 46.35 23.85 46.35 24.03 46.53
	 C 25.83 47.25 27.27 47.79 28.89 48.33 C 30.51 49.05 32.31 49.77 33.93 50.49 L 34.11 50.49
	 L 34.11 50.49 C 36.27 51.57 38.79 52.83 41.13 54.27 L 41.31 54.27
	 L 41.49 54.45 C 41.67 54.45 42.03 54.63 42.39 54.81 C 43.29 55.35 44.55 56.07 45.63 56.43
	 L 45.63 56.43 L 45.63 56.43 C 47.25 56.97 48.51 57.69 49.95 58.59
	 C 51.21 59.31 52.83 60.21 54.81 61.11 L 54.81 61.11 L 54.99 61.11
	 C 57.87 62.19 60.93 62.73 63.99 63.09 C 65.25 63.27 66.69 63.45 67.95 63.63 L 67.95 63.63
	 L 68.13 63.63 C 69.57 63.99 71.37 63.99 72.81 63.63 L 72.99 63.63
	 L 73.17 63.63 C 76.05 63.09 78.39 62.01 80.73 60.93 C 81.99 60.57 82.89 60.03 83.97 59.67
	 L 83.79 59.67 C 85.77 59.13 88.11 58.05 90.09 56.97 L 89.91 56.97
	 C 91.53 56.07 92.97 55.53 94.41 54.81 C 96.21 54.09 98.01 53.19 99.81 52.29 L 99.63 52.29
	 C 100.17 52.11 101.07 51.75 101.79 51.39 C 102.69 51.21 103.77 50.85 104.85 50.31 C 106.29 49.77 107.37 49.05 108.45 48.33
	 C 109.17 47.79 109.89 47.43 110.61 47.07 L 110.43 47.07 C 111.15 46.89 111.69 46.53 112.41 46.17
	 C 113.85 45.45 114.93 44.91 116.37 44.55 L 117.81 44.19 C 119.25 43.83 120.69 43.47 122.13 42.93
	 L 121.77 43.11 C 122.85 42.93 123.75 42.39 124.47 42.03 C 124.83 41.85 125.19 41.67 125.37 41.67
	 L 125.37 41.67 C 125.37 41.67 125.37 41.67 125.37 41.67 C 127.17 41.13 137.43 35.91 139.05 35.37 Z"/>
<path style="&sto7;"
d="M 8.91 35.37 C 11.61 36.45 15.21 37.35 17.73 38.61 C 19.35 39.69 20.97 40.59 22.95 41.13
	 C 24.03 41.67 25.65 42.03 26.73 42.57 C 30.15 44.01 33.21 44.91 36.81 46.53 C 39.33 47.61 42.03 49.05 44.37 50.49
	 C 45.27 50.85 46.89 51.93 47.79 52.11 C 51.75 53.37 53.55 55.35 57.33 56.97 C 61.11 58.41 65.43 58.59 69.57 59.31
	 C 70.65 59.49 71.91 59.49 72.99 59.31 C 76.95 58.59 79.83 56.79 83.43 55.53 C 85.05 54.99 87.03 54.09 88.65 53.19
	 C 91.89 51.21 95.13 50.31 98.55 48.33 C 99.99 47.61 102.15 47.07 103.77 46.35 C 105.93 45.27 107.55 44.01 109.35 43.11
	 C 111.87 42.03 113.49 40.95 116.01 40.23 C 117.99 39.87 119.79 39.51 121.41 38.79 C 122.67 38.43 123.93 37.71 125.01 37.35
	 C 126.63 36.99 130.23 35.91 131.85 35.37 Z"/>
<path style="&sto2;"
d="M 8.91 35.37 C 11.61 36.45 15.21 37.35 17.73 38.61 C 19.35 39.69 20.97 40.59 22.95 41.13
	 C 24.03 41.67 25.65 42.03 26.73 42.57 C 30.15 44.01 33.21 44.91 36.81 46.53 C 39.33 47.61 42.03 49.05 44.37 50.49
	 C 45.27 50.85 46.89 51.93 47.79 52.11 C 51.75 53.37 53.55 55.35 57.33 56.97 C 61.11 58.41 65.43 58.59 69.57 59.31
	 C 70.65 59.49 71.91 59.49 72.99 59.31 C 76.95 58.59 79.83 56.79 83.43 55.53 C 85.05 54.99 87.03 54.09 88.65 53.19
	 C 91.89 51.21 95.13 50.31 98.55 48.33 C 99.99 47.61 102.15 47.07 103.77 46.35 C 105.93 45.27 107.55 44.01 109.35 43.11
	 C 111.87 42.03 113.49 40.95 116.01 40.23 C 117.99 39.87 119.79 39.51 121.41 38.79 C 122.67 38.43 123.93 37.71 125.01 37.35
	 C 126.63 36.99 130.23 35.91 131.85 35.37"/>
<polygon style="&sto4;"
	points="15.57,37.71 15.57,35.37 8.91,35.37 15.57,37.71 "/>
<polyline style="&sto2;"
	points="15.57,37.71 15.57,35.37 8.91,35.37 15.57,37.71 "/>
<polygon style="&sto4;"
	points="123.57,37.89 123.57,35.37 132.03,35.37 123.57,37.89 "/>
<polyline style="&sto2;"
	points="123.57,37.89 123.57,35.37 132.03,35.37 123.57,37.89 "/>
<polygon style="&sto4;"
	points="8.91,35.37 0.09,35.37 "/>
<polyline style="&sto2;"
	points="8.91,35.37 0.09,35.37 "/>
<polygon style="&sto7;"
	points="132.03,35.37 138.87,35.37 "/>
<polyline style="&sto2;"
	points="132.03,35.37 138.87,35.37 "/>
<path style="&sto5;"
d="M 41.31 48.69 C 42.21 49.23 43.65 49.95 44.37 50.49 C 45.27 51.03 46.89 51.93 47.79 52.29
	 C 51.93 53.55 53.55 55.35 57.33 56.97 C 61.29 58.41 65.43 58.59 69.57 59.31 C 70.65 59.49 72.09 59.49 73.17 59.31
	 C 76.95 58.59 80.01 56.79 83.43 55.53 C 85.05 55.17 87.03 54.09 88.65 53.19 C 90.99 51.93 93.15 51.03 95.49 49.95
	 C 96.39 49.59 96.93 49.23 97.83 48.69 L 41.31 48.69 Z"/>
<path style="&sto2;"
d="M 41.31 48.69 C 42.21 49.23 43.65 49.95 44.37 50.49 C 45.27 51.03 46.89 51.93 47.79 52.29
	 C 51.93 53.55 53.55 55.35 57.33 56.97 C 61.29 58.41 65.43 58.59 69.57 59.31 C 70.65 59.49 72.09 59.49 73.17 59.31
	 C 76.95 58.59 80.01 56.79 83.43 55.53 C 85.05 55.17 87.03 54.09 88.65 53.19 C 90.99 51.93 93.15 51.03 95.49 49.95
	 C 96.39 49.59 96.93 49.23 97.83 48.69 L 41.31 48.69"/>
<polygon style="&sto3;"
	points="37.17,46.53 44.01,37.17 46.17,37.17 38.07,47.07 
	37.17,46.53 "/>
<polyline style="&sto2;"
	points="37.17,46.53 44.01,37.17 46.17,37.17 38.07,47.07 
	37.17,46.53 "/>
<polygon style="&sto3;"
	points="102.33,46.89 95.31,37.17 92.97,37.17 101.25,47.25 
	102.33,46.89 "/>
<polyline style="&sto2;"
	points="102.33,46.89 95.31,37.17 92.97,37.17 101.25,47.25 
	102.33,46.89 "/>
<polygon style="&sto3;"
	points="44.91,37.35 69.39,36.63 94.23,37.35 123.57,36.63 
	123.57,35.37 15.57,35.37 15.57,36.63 44.91,37.35 "/>
<polyline style="&sto2;"
	points="44.91,37.35 69.39,36.63 94.23,37.35 123.57,36.63 
	123.57,35.37 15.57,35.37 15.57,36.63 44.91,37.35 "/>
<text x="109.17" y="27.63"
	style="&stt0;"
>bj&#230;lkebro
</text>
<text x="107.91" y="63.81"
	style="&stt0;"
>rammebro
</text>
<text x="117.63" y="102.15"
	style="&stt0;"
>buebro
</text>
<text x="107.91" y="146.43"
	style="&stt0;"
>h&#230;ngebro
</text>
<text x="101.79" y="193.41"
	style="&stt0;"
>skr&#229;stagsbro
</text>
</svg>
